# xmcd
#
# Track frame offsets: 
#        150
#        17857
#        37227
#        56787
#        80182
#        105955
#        125680
#        143607
#        163835
#        184867
#
# Disc length: 2777 seconds
#
# Revision: 3
# Processed by: cddbd v1.5PL3 Copyright (c) Steve Scherf et al.
# Submitted via: ExactAudioCopy v0.95a3
#
DISCID=8e0ad70a
DTITLE=Will Downing - Emotions
DYEAR=2003
DGENRE=Soul
TTITLE0=A Million Ways
TTITLE1=King Of Fools
TTITLE2=Daydreaming
TTITLE3=Falling In Love
TTITLE4=Hey There Lonely Girl
TTITLE5=Rhythm Of U and Me
TTITLE6=Beautiful To Me
TTITLE7=Another Sad Story
TTITLE8=Riding On A Cloud
TTITLE9=Anything
EXTD=
EXTT0=
EXTT1=
EXTT2=
EXTT3=
EXTT4=
EXTT5=
EXTT6=
EXTT7=
EXTT8=
EXTT9=
PLAYORDER=
